<svg width="183" height="83" viewBox="0 0 183 83" fill="none" xmlns="http://www.w3.org/2000/svg">
<path d="M45.0355 4.94975L78.0502 37.9645C80.0029 39.9171 80.0029 43.0829 78.0503 45.0355L45.0355 78.0502C43.0829 80.0029 39.9171 80.0029 37.9645 78.0503L4.94975 45.0355C2.99713 43.0829 2.99713 39.9171 4.94975 37.9645L37.9645 4.94975C39.9171 2.99713 43.0829 2.99713 45.0355 4.94975Z" fill="#DC213E" stroke="white" stroke-width="2"/>
<mask id="path-2-outside-1_2212_3" maskUnits="userSpaceOnUse" x="22" y="27" width="160" height="27" fill="black">
<rect fill="white" x="22" y="27" width="160" height="27"/>
<path d="M49.424 29.536V52H43.952V38.528L38.928 52H34.512L29.456 38.496V52H23.984V29.536H30.448L36.752 45.088L42.992 29.536H49.424ZM53.551 43.04C53.551 41.2053 53.8923 39.5947 54.575 38.208C55.279 36.8213 56.2283 35.7547 57.423 35.008C58.6177 34.2613 59.951 33.888 61.423 33.888C62.6817 33.888 63.7803 34.144 64.719 34.656C65.679 35.168 66.415 35.84 66.927 36.672V34.144H72.399V52H66.927V49.472C66.3937 50.304 65.647 50.976 64.687 51.488C63.7483 52 62.6497 52.256 61.391 52.256C59.9403 52.256 58.6177 51.8827 57.423 51.136C56.2283 50.368 55.279 49.2907 54.575 47.904C53.8923 46.496 53.551 44.8747 53.551 43.04ZM66.927 43.072C66.927 41.7067 66.543 40.6293 65.775 39.84C65.0283 39.0507 64.111 38.656 63.023 38.656C61.935 38.656 61.007 39.0507 60.239 39.84C59.4923 40.608 59.119 41.6747 59.119 43.04C59.119 44.4053 59.4923 45.4933 60.239 46.304C61.007 47.0933 61.935 47.488 63.023 47.488C64.111 47.488 65.0283 47.0933 65.775 46.304C66.543 45.5147 66.927 44.4373 66.927 43.072ZM76.5498 43.072C76.5498 41.216 76.9231 39.5947 77.6698 38.208C78.4378 36.8213 79.4938 35.7547 80.8378 35.008C82.2031 34.2613 83.7604 33.888 85.5098 33.888C87.7498 33.888 89.6164 34.4747 91.1098 35.648C92.6244 36.8213 93.6164 38.4747 94.0858 40.608H88.2618C87.7711 39.2427 86.8218 38.56 85.4138 38.56C84.4111 38.56 83.6111 38.9547 83.0138 39.744C82.4164 40.512 82.1178 41.6213 82.1178 43.072C82.1178 44.5227 82.4164 45.6427 83.0138 46.432C83.6111 47.2 84.4111 47.584 85.4138 47.584C86.8218 47.584 87.7711 46.9013 88.2618 45.536H94.0858C93.6164 47.6267 92.6244 49.2693 91.1098 50.464C89.5951 51.6587 87.7284 52.256 85.5098 52.256C83.7604 52.256 82.2031 51.8827 80.8378 51.136C79.4938 50.3893 78.4378 49.3227 77.6698 47.936C76.9231 46.5493 76.5498 44.928 76.5498 43.072ZM97.2047 43.04C97.2047 41.2053 97.5461 39.5947 98.2287 38.208C98.9327 36.8213 99.8821 35.7547 101.077 35.008C102.271 34.2613 103.605 33.888 105.077 33.888C106.335 33.888 107.434 34.144 108.373 34.656C109.333 35.168 110.069 35.84 110.581 36.672V34.144H116.053V52H110.581V49.472C110.047 50.304 109.301 50.976 108.341 51.488C107.402 52 106.303 52.256 105.045 52.256C103.594 52.256 102.271 51.8827 101.077 51.136C99.8821 50.368 98.9327 49.2907 98.2287 47.904C97.5461 46.496 97.2047 44.8747 97.2047 43.04ZM110.581 43.072C110.581 41.7067 110.197 40.6293 109.429 39.84C108.682 39.0507 107.765 38.656 106.677 38.656C105.589 38.656 104.661 39.0507 103.893 39.84C103.146 40.608 102.773 41.6747 102.773 43.04C102.773 44.4053 103.146 45.4933 103.893 46.304C104.661 47.0933 105.589 47.488 106.677 47.488C107.765 47.488 108.682 47.0933 109.429 46.304C110.197 45.5147 110.581 44.4373 110.581 43.072ZM126.764 33.92V38.464H134.092V42.688H126.764V47.616H135.052V52H121.292V29.536H135.052V33.92H126.764ZM138.796 43.04C138.796 41.2053 139.137 39.5947 139.82 38.208C140.524 36.8213 141.473 35.7547 142.668 35.008C143.863 34.2613 145.196 33.888 146.668 33.888C147.841 33.888 148.908 34.1333 149.868 34.624C150.849 35.1147 151.617 35.776 152.172 36.608V28.32H157.644V52H152.172V49.44C151.66 50.2933 150.924 50.976 149.964 51.488C149.025 52 147.927 52.256 146.668 52.256C145.196 52.256 143.863 51.8827 142.668 51.136C141.473 50.368 140.524 49.2907 139.82 47.904C139.137 46.496 138.796 44.8747 138.796 43.04ZM152.172 43.072C152.172 41.7067 151.788 40.6293 151.02 39.84C150.273 39.0507 149.356 38.656 148.268 38.656C147.18 38.656 146.252 39.0507 145.484 39.84C144.737 40.608 144.364 41.6747 144.364 43.04C144.364 44.4053 144.737 45.4933 145.484 46.304C146.252 47.0933 147.18 47.488 148.268 47.488C149.356 47.488 150.273 47.0933 151.02 46.304C151.788 45.5147 152.172 44.4373 152.172 43.072ZM180.515 34.144V52H175.043V49.568C174.488 50.3573 173.731 50.9973 172.771 51.488C171.832 51.9573 170.787 52.192 169.635 52.192C168.269 52.192 167.064 51.8933 166.019 51.296C164.973 50.6773 164.163 49.792 163.587 48.64C163.011 47.488 162.723 46.1333 162.723 44.576V34.144H168.163V43.84C168.163 45.0347 168.472 45.9627 169.091 46.624C169.709 47.2853 170.541 47.616 171.587 47.616C172.653 47.616 173.496 47.2853 174.115 46.624C174.733 45.9627 175.043 45.0347 175.043 43.84V34.144H180.515Z"/>
</mask>
<path d="M49.424 29.536V52H43.952V38.528L38.928 52H34.512L29.456 38.496V52H23.984V29.536H30.448L36.752 45.088L42.992 29.536H49.424ZM53.551 43.04C53.551 41.2053 53.8923 39.5947 54.575 38.208C55.279 36.8213 56.2283 35.7547 57.423 35.008C58.6177 34.2613 59.951 33.888 61.423 33.888C62.6817 33.888 63.7803 34.144 64.719 34.656C65.679 35.168 66.415 35.84 66.927 36.672V34.144H72.399V52H66.927V49.472C66.3937 50.304 65.647 50.976 64.687 51.488C63.7483 52 62.6497 52.256 61.391 52.256C59.9403 52.256 58.6177 51.8827 57.423 51.136C56.2283 50.368 55.279 49.2907 54.575 47.904C53.8923 46.496 53.551 44.8747 53.551 43.04ZM66.927 43.072C66.927 41.7067 66.543 40.6293 65.775 39.84C65.0283 39.0507 64.111 38.656 63.023 38.656C61.935 38.656 61.007 39.0507 60.239 39.84C59.4923 40.608 59.119 41.6747 59.119 43.04C59.119 44.4053 59.4923 45.4933 60.239 46.304C61.007 47.0933 61.935 47.488 63.023 47.488C64.111 47.488 65.0283 47.0933 65.775 46.304C66.543 45.5147 66.927 44.4373 66.927 43.072ZM76.5498 43.072C76.5498 41.216 76.9231 39.5947 77.6698 38.208C78.4378 36.8213 79.4938 35.7547 80.8378 35.008C82.2031 34.2613 83.7604 33.888 85.5098 33.888C87.7498 33.888 89.6164 34.4747 91.1098 35.648C92.6244 36.8213 93.6164 38.4747 94.0858 40.608H88.2618C87.7711 39.2427 86.8218 38.56 85.4138 38.56C84.4111 38.56 83.6111 38.9547 83.0138 39.744C82.4164 40.512 82.1178 41.6213 82.1178 43.072C82.1178 44.5227 82.4164 45.6427 83.0138 46.432C83.6111 47.2 84.4111 47.584 85.4138 47.584C86.8218 47.584 87.7711 46.9013 88.2618 45.536H94.0858C93.6164 47.6267 92.6244 49.2693 91.1098 50.464C89.5951 51.6587 87.7284 52.256 85.5098 52.256C83.7604 52.256 82.2031 51.8827 80.8378 51.136C79.4938 50.3893 78.4378 49.3227 77.6698 47.936C76.9231 46.5493 76.5498 44.928 76.5498 43.072ZM97.2047 43.04C97.2047 41.2053 97.5461 39.5947 98.2287 38.208C98.9327 36.8213 99.8821 35.7547 101.077 35.008C102.271 34.2613 103.605 33.888 105.077 33.888C106.335 33.888 107.434 34.144 108.373 34.656C109.333 35.168 110.069 35.84 110.581 36.672V34.144H116.053V52H110.581V49.472C110.047 50.304 109.301 50.976 108.341 51.488C107.402 52 106.303 52.256 105.045 52.256C103.594 52.256 102.271 51.8827 101.077 51.136C99.8821 50.368 98.9327 49.2907 98.2287 47.904C97.5461 46.496 97.2047 44.8747 97.2047 43.04ZM110.581 43.072C110.581 41.7067 110.197 40.6293 109.429 39.84C108.682 39.0507 107.765 38.656 106.677 38.656C105.589 38.656 104.661 39.0507 103.893 39.84C103.146 40.608 102.773 41.6747 102.773 43.04C102.773 44.4053 103.146 45.4933 103.893 46.304C104.661 47.0933 105.589 47.488 106.677 47.488C107.765 47.488 108.682 47.0933 109.429 46.304C110.197 45.5147 110.581 44.4373 110.581 43.072ZM126.764 33.92V38.464H134.092V42.688H126.764V47.616H135.052V52H121.292V29.536H135.052V33.92H126.764ZM138.796 43.04C138.796 41.2053 139.137 39.5947 139.82 38.208C140.524 36.8213 141.473 35.7547 142.668 35.008C143.863 34.2613 145.196 33.888 146.668 33.888C147.841 33.888 148.908 34.1333 149.868 34.624C150.849 35.1147 151.617 35.776 152.172 36.608V28.32H157.644V52H152.172V49.44C151.66 50.2933 150.924 50.976 149.964 51.488C149.025 52 147.927 52.256 146.668 52.256C145.196 52.256 143.863 51.8827 142.668 51.136C141.473 50.368 140.524 49.2907 139.82 47.904C139.137 46.496 138.796 44.8747 138.796 43.04ZM152.172 43.072C152.172 41.7067 151.788 40.6293 151.02 39.84C150.273 39.0507 149.356 38.656 148.268 38.656C147.18 38.656 146.252 39.0507 145.484 39.84C144.737 40.608 144.364 41.6747 144.364 43.04C144.364 44.4053 144.737 45.4933 145.484 46.304C146.252 47.0933 147.18 47.488 148.268 47.488C149.356 47.488 150.273 47.0933 151.02 46.304C151.788 45.5147 152.172 44.4373 152.172 43.072ZM180.515 34.144V52H175.043V49.568C174.488 50.3573 173.731 50.9973 172.771 51.488C171.832 51.9573 170.787 52.192 169.635 52.192C168.269 52.192 167.064 51.8933 166.019 51.296C164.973 50.6773 164.163 49.792 163.587 48.64C163.011 47.488 162.723 46.1333 162.723 44.576V34.144H168.163V43.84C168.163 45.0347 168.472 45.9627 169.091 46.624C169.709 47.2853 170.541 47.616 171.587 47.616C172.653 47.616 173.496 47.2853 174.115 46.624C174.733 45.9627 175.043 45.0347 175.043 43.84V34.144H180.515Z" fill="white"/>
<path d="M49.424 29.536H50.424V28.536H49.424V29.536ZM49.424 52V53H50.424V52H49.424ZM43.952 52H42.952V53H43.952V52ZM43.952 38.528H44.952L43.015 38.1786L43.952 38.528ZM38.928 52V53H39.6224L39.865 52.3494L38.928 52ZM34.512 52L33.5755 52.3506L33.8186 53H34.512V52ZM29.456 38.496L30.3925 38.1454L28.456 38.496H29.456ZM29.456 52V53H30.456V52H29.456ZM23.984 52H22.984V53H23.984V52ZM23.984 29.536V28.536H22.984V29.536H23.984ZM30.448 29.536L31.3748 29.1603L31.1217 28.536H30.448V29.536ZM36.752 45.088L35.8252 45.4637L36.7567 47.7616L37.6801 45.4604L36.752 45.088ZM42.992 29.536V28.536H42.3157L42.0639 29.1636L42.992 29.536ZM48.424 29.536V52H50.424V29.536H48.424ZM49.424 51H43.952V53H49.424V51ZM44.952 52V38.528H42.952V52H44.952ZM43.015 38.1786L37.991 51.6506L39.865 52.3494L44.889 38.8774L43.015 38.1786ZM38.928 51H34.512V53H38.928V51ZM35.4485 51.6494L30.3925 38.1454L28.5195 38.8466L33.5755 52.3506L35.4485 51.6494ZM28.456 38.496V52H30.456V38.496H28.456ZM29.456 51H23.984V53H29.456V51ZM24.984 52V29.536H22.984V52H24.984ZM23.984 30.536H30.448V28.536H23.984V30.536ZM29.5212 29.9117L35.8252 45.4637L37.6788 44.7123L31.3748 29.1603L29.5212 29.9117ZM37.6801 45.4604L43.9201 29.9084L42.0639 29.1636L35.8239 44.7156L37.6801 45.4604ZM42.992 30.536H49.424V28.536H42.992V30.536ZM54.575 38.208L53.6833 37.7553L53.6778 37.7663L54.575 38.208ZM57.423 35.008L57.953 35.856L57.953 35.856L57.423 35.008ZM64.719 34.656L64.2401 35.5339L64.2484 35.5384L64.719 34.656ZM66.927 36.672L66.0753 37.1961L67.927 40.205V36.672H66.927ZM66.927 34.144V33.144H65.927V34.144H66.927ZM72.399 34.144H73.399V33.144H72.399V34.144ZM72.399 52V53H73.399V52H72.399ZM66.927 52H65.927V53H66.927V52ZM66.927 49.472H67.927V46.059L66.0851 48.9323L66.927 49.472ZM64.687 51.488L64.2164 50.6056L64.2081 50.6101L64.687 51.488ZM57.423 51.136L56.8822 51.9772L56.893 51.984L57.423 51.136ZM54.575 47.904L53.6752 48.3403L53.6792 48.3485L53.6833 48.3567L54.575 47.904ZM65.775 39.84L65.0485 40.5273L65.0583 40.5374L65.775 39.84ZM60.239 39.84L59.5223 39.1426L59.522 39.1429L60.239 39.84ZM60.239 46.304L59.5035 46.9815L59.5127 46.9915L59.5223 47.0014L60.239 46.304ZM65.775 46.304L65.0582 45.6066L65.0485 45.6168L65.775 46.304ZM54.551 43.04C54.551 41.3301 54.8687 39.8755 55.4722 38.6497L53.6778 37.7663C52.916 39.3138 52.551 41.0806 52.551 43.04H54.551ZM55.4667 38.6607C56.0971 37.4189 56.9283 36.4964 57.953 35.856L56.893 34.16C55.5284 35.0129 54.4609 36.2238 53.6833 37.7553L55.4667 38.6607ZM57.953 35.856C58.9814 35.2132 60.1296 34.888 61.423 34.888V32.888C59.7724 32.888 58.2539 33.3094 56.893 34.16L57.953 35.856ZM61.423 34.888C62.5441 34.888 63.4724 35.1151 64.2401 35.5339L65.1979 33.7781C64.0883 33.1729 62.8193 32.888 61.423 32.888V34.888ZM64.2484 35.5384C65.0701 35.9766 65.6666 36.5319 66.0753 37.1961L67.7787 36.1479C67.1634 35.1481 66.2879 34.3594 65.1896 33.7736L64.2484 35.5384ZM67.927 36.672V34.144H65.927V36.672H67.927ZM66.927 35.144H72.399V33.144H66.927V35.144ZM71.399 34.144V52H73.399V34.144H71.399ZM72.399 51H66.927V53H72.399V51ZM67.927 52V49.472H65.927V52H67.927ZM66.0851 48.9323C65.6533 49.606 65.041 50.1659 64.2164 50.6056L65.1576 52.3704C66.253 51.7861 67.1341 51.002 67.7689 50.0117L66.0851 48.9323ZM64.2081 50.6101C63.4404 51.0289 62.5121 51.256 61.391 51.256V53.256C62.7873 53.256 64.0563 52.9711 65.1659 52.3659L64.2081 50.6101ZM61.391 51.256C60.1219 51.256 58.9838 50.9323 57.953 50.288L56.893 51.984C58.2515 52.8331 59.7588 53.256 61.391 53.256V51.256ZM57.9638 50.2948C56.9324 49.6318 56.0981 48.6951 55.4667 47.4513L53.6833 48.3567C54.4599 49.8862 55.5242 51.1042 56.8822 51.9772L57.9638 50.2948ZM55.4748 47.4677C54.8685 46.2173 54.551 44.7495 54.551 43.04H52.551C52.551 44.9999 52.9161 46.7747 53.6752 48.3403L55.4748 47.4677ZM67.927 43.072C67.927 41.5121 67.4826 40.1611 66.4917 39.1426L65.0583 40.5374C65.6034 41.0976 65.927 41.9013 65.927 43.072H67.927ZM66.5015 39.1528C65.5656 38.1635 64.3854 37.656 63.023 37.656V39.656C63.8366 39.656 64.491 39.9378 65.0485 40.5272L66.5015 39.1528ZM63.023 37.656C61.6613 37.656 60.4759 38.1625 59.5223 39.1426L60.9557 40.5374C61.5381 39.9388 62.2087 39.656 63.023 39.656V37.656ZM59.522 39.1429C58.5477 40.1451 58.119 41.489 58.119 43.04H60.119C60.119 41.8603 60.437 41.0709 60.956 40.5371L59.522 39.1429ZM58.119 43.04C58.119 44.5936 58.5485 45.9447 59.5035 46.9815L60.9745 45.6265C60.4361 45.042 60.119 44.217 60.119 43.04H58.119ZM59.5223 47.0014C60.4759 47.9815 61.6613 48.488 63.023 48.488V46.488C62.2087 46.488 61.5381 46.2052 60.9557 45.6066L59.5223 47.0014ZM63.023 48.488C64.3854 48.488 65.5656 47.9805 66.5015 46.9912L65.0485 45.6168C64.491 46.2062 63.8366 46.488 63.023 46.488V48.488ZM66.4917 47.0014C67.4826 45.9829 67.927 44.6319 67.927 43.072H65.927C65.927 44.2427 65.6034 45.0464 65.0583 45.6066L66.4917 47.0014ZM77.6698 38.208L76.7949 37.7235L76.7893 37.7339L77.6698 38.208ZM80.8378 35.008L80.3579 34.1306L80.3521 34.1338L80.8378 35.008ZM91.1098 35.648L90.4919 36.4343L90.4974 36.4385L91.1098 35.648ZM94.0858 40.608V41.608H95.3297L95.0624 40.3931L94.0858 40.608ZM88.2618 40.608L87.3207 40.9462L87.5585 41.608H88.2618V40.608ZM83.0138 39.744L83.8032 40.358L83.8112 40.3474L83.0138 39.744ZM83.0138 46.432L82.2163 47.0355L82.2244 47.0459L83.0138 46.432ZM88.2618 45.536V44.536H87.5585L87.3207 45.1978L88.2618 45.536ZM94.0858 45.536L95.0615 45.755L95.3351 44.536H94.0858V45.536ZM91.1098 50.464L90.4905 49.6788L90.4905 49.6788L91.1098 50.464ZM80.8378 51.136L80.3521 52.0102L80.3579 52.0134L80.8378 51.136ZM77.6698 47.936L76.7892 48.4101L76.795 48.4205L77.6698 47.936ZM77.5498 43.072C77.5498 41.3519 77.8949 39.8991 78.5502 38.6821L76.7893 37.7339C75.9512 39.2903 75.5498 41.0801 75.5498 43.072H77.5498ZM78.5445 38.6925C79.2248 37.4642 80.1483 36.535 81.3234 35.8822L80.3521 34.1338C78.8392 34.9743 77.6507 36.1784 76.795 37.7235L78.5445 38.6925ZM81.3176 35.8854C82.5183 35.2287 83.907 34.888 85.5098 34.888V32.888C83.6139 32.888 81.8879 33.2939 80.3579 34.1306L81.3176 35.8854ZM85.5098 34.888C87.5675 34.888 89.2051 35.4232 90.4919 36.4343L91.7276 34.8617C90.0278 33.5261 87.932 32.888 85.5098 32.888V34.888ZM90.4974 36.4385C91.8013 37.4486 92.6826 38.8842 93.1091 40.8229L95.0624 40.3931C94.5502 38.0651 93.4476 36.194 91.7221 34.8574L90.4974 36.4385ZM94.0858 39.608H88.2618V41.608H94.0858V39.608ZM89.2028 40.2698C88.9057 39.4429 88.4403 38.7453 87.7656 38.2601C87.0885 37.7732 86.2835 37.56 85.4138 37.56V39.56C85.952 39.56 86.3257 39.6881 86.5979 39.8839C86.8726 40.0814 87.1272 40.4077 87.3207 40.9462L89.2028 40.2698ZM85.4138 37.56C84.1026 37.56 83.0056 38.0977 82.2163 39.1406L83.8112 40.3474C84.2166 39.8117 84.7196 39.56 85.4138 39.56V37.56ZM82.2244 39.1301C81.4379 40.1413 81.1178 41.5034 81.1178 43.072H83.1178C83.1178 41.7392 83.3949 40.8827 83.8031 40.3579L82.2244 39.1301ZM81.1178 43.072C81.1178 44.6431 81.4389 46.0081 82.2163 47.0354L83.8112 45.8286C83.3939 45.2772 83.1178 44.4022 83.1178 43.072H81.1178ZM82.2244 47.0459C83.0178 48.0661 84.1135 48.584 85.4138 48.584V46.584C84.7087 46.584 84.2043 46.3339 83.8031 45.8181L82.2244 47.0459ZM85.4138 48.584C86.2835 48.584 87.0885 48.3708 87.7656 47.8839C88.4403 47.3987 88.9057 46.7011 89.2028 45.8742L87.3207 45.1978C87.1272 45.7363 86.8726 46.0626 86.5979 46.2601C86.3257 46.4559 85.952 46.584 85.4138 46.584V48.584ZM88.2618 46.536H94.0858V44.536H88.2618V46.536ZM93.11 45.317C92.6851 47.21 91.8047 48.6422 90.4905 49.6788L91.729 51.2492C93.4441 49.8964 94.5478 48.0434 95.0615 45.755L93.11 45.317ZM90.4905 49.6788C89.1781 50.7139 87.5391 51.256 85.5098 51.256V53.256C87.9178 53.256 90.0121 52.6034 91.729 51.2492L90.4905 49.6788ZM85.5098 51.256C83.907 51.256 82.5183 50.9153 81.3176 50.2586L80.3579 52.0134C81.8879 52.8501 83.6139 53.256 85.5098 53.256V51.256ZM81.3234 50.2618C80.1483 49.609 79.2248 48.6798 78.5445 47.4515L76.795 48.4205C77.6507 49.9656 78.8392 51.1697 80.3521 52.0102L81.3234 50.2618ZM78.5502 47.4619C77.8949 46.2449 77.5498 44.7921 77.5498 43.072H75.5498C75.5498 45.0639 75.9512 46.8537 76.7893 48.4101L78.5502 47.4619ZM98.2287 38.208L97.337 37.7553L97.3316 37.7663L98.2287 38.208ZM101.077 35.008L101.607 35.856L101.607 35.856L101.077 35.008ZM108.373 34.656L107.894 35.5339L107.902 35.5384L108.373 34.656ZM110.581 36.672L109.729 37.1961L111.581 40.205V36.672H110.581ZM110.581 34.144V33.144H109.581V34.144H110.581ZM116.053 34.144H117.053V33.144H116.053V34.144ZM116.053 52V53H117.053V52H116.053ZM110.581 52H109.581V53H110.581V52ZM110.581 49.472H111.581V46.059L109.739 48.9323L110.581 49.472ZM108.341 51.488L107.87 50.6056L107.862 50.6101L108.341 51.488ZM101.077 51.136L100.536 51.9772L100.547 51.984L101.077 51.136ZM98.2287 47.904L97.3289 48.3403L97.3329 48.3485L97.3371 48.3567L98.2287 47.904ZM109.429 39.84L108.702 40.5273L108.712 40.5374L109.429 39.84ZM103.893 39.84L103.176 39.1426L103.176 39.1429L103.893 39.84ZM103.893 46.304L103.157 46.9815L103.166 46.9915L103.176 47.0014L103.893 46.304ZM109.429 46.304L108.712 45.6066L108.702 45.6168L109.429 46.304ZM98.2047 43.04C98.2047 41.3301 98.5224 39.8755 99.1259 38.6497L97.3316 37.7663C96.5697 39.3138 96.2047 41.0806 96.2047 43.04H98.2047ZM99.1204 38.6607C99.7509 37.4189 100.582 36.4964 101.607 35.856L100.547 34.16C99.1821 35.0129 98.1146 36.2238 97.3371 37.7553L99.1204 38.6607ZM101.607 35.856C102.635 35.2132 103.783 34.888 105.077 34.888V32.888C103.426 32.888 101.908 33.3094 100.547 34.16L101.607 35.856ZM105.077 34.888C106.198 34.888 107.126 35.1151 107.894 35.5339L108.852 33.7781C107.742 33.1729 106.473 32.888 105.077 32.888V34.888ZM107.902 35.5384C108.724 35.9766 109.32 36.5319 109.729 37.1961L111.432 36.1479C110.817 35.1481 109.942 34.3594 108.843 33.7736L107.902 35.5384ZM111.581 36.672V34.144H109.581V36.672H111.581ZM110.581 35.144H116.053V33.144H110.581V35.144ZM115.053 34.144V52H117.053V34.144H115.053ZM116.053 51H110.581V53H116.053V51ZM111.581 52V49.472H109.581V52H111.581ZM109.739 48.9323C109.307 49.606 108.695 50.1659 107.87 50.6056L108.811 52.3704C109.907 51.7861 110.788 51.002 111.423 50.0117L109.739 48.9323ZM107.862 50.6101C107.094 51.0289 106.166 51.256 105.045 51.256V53.256C106.441 53.256 107.71 52.9711 108.82 52.3659L107.862 50.6101ZM105.045 51.256C103.776 51.256 102.638 50.9323 101.607 50.288L100.547 51.984C101.905 52.8331 103.413 53.256 105.045 53.256V51.256ZM101.618 50.2948C100.586 49.6318 99.7519 48.6951 99.1204 47.4513L97.3371 48.3567C98.1136 49.8862 99.178 51.1042 100.536 51.9772L101.618 50.2948ZM99.1286 47.4677C98.5223 46.2173 98.2047 44.7495 98.2047 43.04H96.2047C96.2047 44.9999 96.5699 46.7747 97.3289 48.3403L99.1286 47.4677ZM111.581 43.072C111.581 41.5121 111.136 40.1611 110.145 39.1426L108.712 40.5374C109.257 41.0976 109.581 41.9013 109.581 43.072H111.581ZM110.155 39.1528C109.219 38.1635 108.039 37.656 106.677 37.656V39.656C107.49 39.656 108.145 39.9378 108.702 40.5272L110.155 39.1528ZM106.677 37.656C105.315 37.656 104.13 38.1625 103.176 39.1426L104.609 40.5374C105.192 39.9388 105.862 39.656 106.677 39.656V37.656ZM103.176 39.1429C102.201 40.1451 101.773 41.489 101.773 43.04H103.773C103.773 41.8603 104.091 41.0709 104.61 40.5371L103.176 39.1429ZM101.773 43.04C101.773 44.5936 102.202 45.9447 103.157 46.9815L104.628 45.6265C104.09 45.042 103.773 44.217 103.773 43.04H101.773ZM103.176 47.0014C104.13 47.9815 105.315 48.488 106.677 48.488V46.488C105.862 46.488 105.192 46.2052 104.609 45.6066L103.176 47.0014ZM106.677 48.488C108.039 48.488 109.219 47.9805 110.155 46.9912L108.702 45.6168C108.145 46.2062 107.49 46.488 106.677 46.488V48.488ZM110.145 47.0014C111.136 45.9829 111.581 44.6319 111.581 43.072H109.581C109.581 44.2427 109.257 45.0464 108.712 45.6066L110.145 47.0014ZM126.764 33.92V32.92H125.764V33.92H126.764ZM126.764 38.464H125.764V39.464H126.764V38.464ZM134.092 38.464H135.092V37.464H134.092V38.464ZM134.092 42.688V43.688H135.092V42.688H134.092ZM126.764 42.688V41.688H125.764V42.688H126.764ZM126.764 47.616H125.764V48.616H126.764V47.616ZM135.052 47.616H136.052V46.616H135.052V47.616ZM135.052 52V53H136.052V52H135.052ZM121.292 52H120.292V53H121.292V52ZM121.292 29.536V28.536H120.292V29.536H121.292ZM135.052 29.536H136.052V28.536H135.052V29.536ZM135.052 33.92V34.92H136.052V33.92H135.052ZM125.764 33.92V38.464H127.764V33.92H125.764ZM126.764 39.464H134.092V37.464H126.764V39.464ZM133.092 38.464V42.688H135.092V38.464H133.092ZM134.092 41.688H126.764V43.688H134.092V41.688ZM125.764 42.688V47.616H127.764V42.688H125.764ZM126.764 48.616H135.052V46.616H126.764V48.616ZM134.052 47.616V52H136.052V47.616H134.052ZM135.052 51H121.292V53H135.052V51ZM122.292 52V29.536H120.292V52H122.292ZM121.292 30.536H135.052V28.536H121.292V30.536ZM134.052 29.536V33.92H136.052V29.536H134.052ZM135.052 32.92H126.764V34.92H135.052V32.92ZM139.82 38.208L138.928 37.7553L138.923 37.7663L139.82 38.208ZM142.668 35.008L143.198 35.856L143.198 35.856L142.668 35.008ZM149.868 34.624L149.413 35.5145L149.421 35.5184L149.868 34.624ZM152.172 36.608L151.34 37.1627L153.172 39.9108V36.608H152.172ZM152.172 28.32V27.32H151.172V28.32H152.172ZM157.644 28.32H158.644V27.32H157.644V28.32ZM157.644 52V53H158.644V52H157.644ZM152.172 52H151.172V53H152.172V52ZM152.172 49.44H153.172V45.8297L151.315 48.9255L152.172 49.44ZM149.964 51.488L149.493 50.6056L149.485 50.6101L149.964 51.488ZM142.668 51.136L142.127 51.9772L142.138 51.984L142.668 51.136ZM139.82 47.904L138.92 48.3403L138.924 48.3485L138.928 48.3567L139.82 47.904ZM151.02 39.84L150.293 40.5273L150.303 40.5374L151.02 39.84ZM145.484 39.84L144.767 39.1426L144.767 39.1429L145.484 39.84ZM145.484 46.304L144.748 46.9815L144.758 46.9915L144.767 47.0014L145.484 46.304ZM151.02 46.304L150.303 45.6066L150.294 45.6168L151.02 46.304ZM139.796 43.04C139.796 41.3301 140.114 39.8755 140.717 38.6497L138.923 37.7663C138.161 39.3138 137.796 41.0806 137.796 43.04H139.796ZM140.712 38.6607C141.342 37.4189 142.173 36.4964 143.198 35.856L142.138 34.16C140.773 35.0129 139.706 36.2238 138.928 37.7553L140.712 38.6607ZM143.198 35.856C144.226 35.2132 145.375 34.888 146.668 34.888V32.888C145.017 32.888 143.499 33.3094 142.138 34.16L143.198 35.856ZM146.668 34.888C147.697 34.888 148.606 35.102 149.413 35.5144L150.323 33.7336C149.21 33.1647 147.985 32.888 146.668 32.888V34.888ZM149.421 35.5184C150.262 35.939 150.891 36.4893 151.34 37.1627L153.004 36.0533C152.344 35.0627 151.437 34.2903 150.315 33.7296L149.421 35.5184ZM153.172 36.608V28.32H151.172V36.608H153.172ZM152.172 29.32H157.644V27.32H152.172V29.32ZM156.644 28.32V52H158.644V28.32H156.644ZM157.644 51H152.172V53H157.644V51ZM153.172 52V49.44H151.172V52H153.172ZM151.315 48.9255C150.904 49.6091 150.309 50.1707 149.493 50.6056L150.435 52.3704C151.539 51.7813 152.416 50.9776 153.029 49.9545L151.315 48.9255ZM149.485 50.6101C148.717 51.0289 147.789 51.256 146.668 51.256V53.256C148.064 53.256 149.333 52.9711 150.443 52.3659L149.485 50.6101ZM146.668 51.256C145.375 51.256 144.226 50.9308 143.198 50.288L142.138 51.984C143.499 52.8346 145.017 53.256 146.668 53.256V51.256ZM143.209 50.2948C142.177 49.6318 141.343 48.6951 140.712 47.4513L138.928 48.3567C139.705 49.8862 140.769 51.1042 142.127 51.9772L143.209 50.2948ZM140.72 47.4677C140.114 46.2173 139.796 44.7495 139.796 43.04H137.796C137.796 44.9999 138.161 46.7747 138.92 48.3403L140.72 47.4677ZM153.172 43.072C153.172 41.5121 152.728 40.1611 151.737 39.1426L150.303 40.5374C150.848 41.0976 151.172 41.9013 151.172 43.072H153.172ZM151.746 39.1528C150.811 38.1635 149.63 37.656 148.268 37.656V39.656C149.082 39.656 149.736 39.9378 150.294 40.5272L151.746 39.1528ZM148.268 37.656C146.906 37.656 145.721 38.1625 144.767 39.1426L146.201 40.5374C146.783 39.9388 147.454 39.656 148.268 39.656V37.656ZM144.767 39.1429C143.793 40.1451 143.364 41.489 143.364 43.04H145.364C145.364 41.8603 145.682 41.0709 146.201 40.5371L144.767 39.1429ZM143.364 43.04C143.364 44.5936 143.794 45.9447 144.748 46.9815L146.22 45.6265C145.681 45.042 145.364 44.217 145.364 43.04H143.364ZM144.767 47.0014C145.721 47.9815 146.906 48.488 148.268 48.488V46.488C147.454 46.488 146.783 46.2052 146.201 45.6066L144.767 47.0014ZM148.268 48.488C149.63 48.488 150.811 47.9805 151.746 46.9912L150.294 45.6168C149.736 46.2062 149.082 46.488 148.268 46.488V48.488ZM151.737 47.0014C152.728 45.9829 153.172 44.6319 153.172 43.072H151.172C151.172 44.2427 150.848 45.0464 150.303 45.6066L151.737 47.0014ZM180.515 34.144H181.515V33.144H180.515V34.144ZM180.515 52V53H181.515V52H180.515ZM175.043 52H174.043V53H175.043V52ZM175.043 49.568H176.043V46.4056L174.225 48.9931L175.043 49.568ZM172.771 51.488L173.218 52.3825L173.226 52.3784L172.771 51.488ZM166.019 51.296L165.509 52.1566L165.516 52.1605L165.523 52.1642L166.019 51.296ZM163.587 48.64L162.692 49.0872L163.587 48.64ZM162.723 34.144V33.144H161.723V34.144H162.723ZM168.163 34.144H169.163V33.144H168.163V34.144ZM169.091 46.624L168.36 47.3072L168.36 47.3072L169.091 46.624ZM175.043 34.144V33.144H174.043V34.144H175.043ZM179.515 34.144V52H181.515V34.144H179.515ZM180.515 51H175.043V53H180.515V51ZM176.043 52V49.568H174.043V52H176.043ZM174.225 48.9931C173.774 49.6342 173.148 50.1721 172.316 50.5976L173.226 52.3784C174.313 51.8225 175.202 51.0804 175.861 50.1429L174.225 48.9931ZM172.324 50.5936C171.537 50.9869 170.647 51.192 169.635 51.192V53.192C170.927 53.192 172.127 52.9278 173.218 52.3824L172.324 50.5936ZM169.635 51.192C168.42 51.192 167.39 50.9277 166.515 50.4278L165.523 52.1642C166.738 52.859 168.119 53.192 169.635 53.192V51.192ZM166.528 50.4354C165.658 49.9207 164.977 49.1837 164.481 48.1928L162.692 49.0872C163.349 50.4003 164.288 51.434 165.509 52.1566L166.528 50.4354ZM164.481 48.1928C163.988 47.2057 163.723 46.0101 163.723 44.576H161.723C161.723 46.2565 162.034 47.7703 162.692 49.0872L164.481 48.1928ZM163.723 44.576V34.144H161.723V44.576H163.723ZM162.723 35.144H168.163V33.144H162.723V35.144ZM167.163 34.144V43.84H169.163V34.144H167.163ZM167.163 43.84C167.163 45.2052 167.519 46.4077 168.36 47.3072L169.821 45.9408C169.425 45.5177 169.163 44.8641 169.163 43.84H167.163ZM168.36 47.3072C169.198 48.2024 170.311 48.616 171.587 48.616V46.616C170.771 46.616 170.221 46.3683 169.821 45.9408L168.36 47.3072ZM171.587 48.616C172.877 48.616 174.004 48.2067 174.845 47.3072L173.384 45.9408C172.989 46.364 172.43 46.616 171.587 46.616V48.616ZM174.845 47.3072C175.686 46.4077 176.043 45.2052 176.043 43.84H174.043C174.043 44.8641 173.78 45.5177 173.384 45.9408L174.845 47.3072ZM176.043 43.84V34.144H174.043V43.84H176.043ZM175.043 35.144H180.515V33.144H175.043V35.144Z" fill="#DFDFDF" mask="url(#path-2-outside-1_2212_3)"/>
</svg>
